lowerlimbmodel_states
version=1
nRows=137
nColumns=3
inDegrees=yes
endheader
time	q1	q1_u
      0.00000000	      0.00000000	      0.00000000
      0.01000000	      0.21589391	     43.15531824
      0.03333333	      2.39145789	    142.27919349
      0.06000000	      7.61936946	    248.47092234
      0.06666667	      9.36013694	    273.10670436
      0.10000000	     20.31225962	    378.22388342
      0.11000000	     24.21461384	    402.18785743
      0.13333333	     34.09697930	    440.22938562
      0.16666667	     49.04806041	    447.53559075
      0.16945918	     50.29499044	    445.52760975
      0.20000000	     63.28645741	    400.87799058
      0.22891837	     73.98652598	    335.22616510
      0.23333333	     75.44234945	    324.55314937
      0.26666667	     84.96246931	    248.62280570
      0.27883006	     87.84158524	    224.67896739
      0.30000000	     92.21275995	    189.25753161
      0.32874176	     97.08023979	    151.29934534
      0.33333333	     97.76327822	    146.08148182
      0.36666667	    102.06277042	    112.78318805
      0.39349483	    104.76932671	     89.70844902
      0.40000000	    105.33557396	     84.32701164
      0.43333333	    107.69618977	     57.31042003
      0.46666667	    109.15974284	     30.60770345
      0.47154650	    109.29938969	     26.67394963
      0.50000000	    109.73017526	      3.62827038
      0.53333333	    109.40072107	    -23.39841719
      0.54959817	    108.91361990	    -36.52316853
      0.56666667	    108.17397893	    -50.20908794
      0.60000000	    106.05440652	    -77.02398889
      0.61224141	    105.04986176	    -87.05461948
      0.63333333	    103.03120126	   -104.85907768
      0.66666667	     99.02270066	   -136.44836180
      0.67488466	     97.86441167	   -145.29347651
      0.70000000	     93.84474765	   -176.39768742
      0.73333333	     87.10204218	   -230.69601640
      0.73752790	     86.11702795	   -238.83299103
      0.76666667	     78.24364264	   -303.13867568
      0.78358122	     72.77839403	   -343.76222552
      0.80000000	     66.80663510	   -382.03358707
      0.82963455	     54.63524095	   -435.19162782
      0.83333333	     53.01742084	   -439.47194430
      0.86666667	     38.08410920	   -447.25858633
      0.89357153	     26.43005665	   -413.02321705
      0.90000000	     23.81985081	   -399.58717296
      0.93333333	     11.99529498	   -304.40732489
      0.95750851	      5.66866769	   -215.46571812
      0.96666667	      3.86484608	   -178.96515252
      1.00000000	      0.21997258	    -38.74576321
      1.02144550	      0.37104277	     53.76317645
      1.03333333	      1.31569915	    104.52426414
      1.06666667	      7.08896631	    239.60539382
      1.07216697	      8.46298699	    260.23787369
      1.10000000	     17.05780419	    353.18958881
      1.12288844	     25.82538456	    410.14163497
      1.13333333	     30.21037042	    428.49824056
      1.16666667	     45.02028755	    450.77372465
      1.18140377	     51.61592235	    442.60217589
      1.20000000	     59.61530221	    417.38306587
      1.23333333	     72.41478686	    345.89751203
      1.23991910	     74.64460519	    329.97620184
      1.26666667	     82.61738853	    267.52209485
      1.28981805	     88.25618636	    220.58983880
      1.30000000	     90.41208531	    202.95325196
      1.33333333	     96.35184465	    155.92579274
      1.33971700	     97.32257958	    148.44039190
      1.36666667	    100.93945437	    120.42370772
      1.40000000	    104.44755420	     91.00968725
      1.40618135	    104.99355387	     85.87740975
      1.43333333	    107.02493692	     63.76710050
      1.46666667	    108.70411352	     37.05819350
      1.47264569	    108.91119922	     32.25448776
      1.50000000	    109.49139987	     10.16873384
      1.53333333	    109.38091233	    -16.80876568
      1.53911004	    109.27036699	    -21.47476636
      1.56666667	    108.37387826	    -43.61592648
      1.60000000	    106.47344803	    -70.41381029
      1.60662435	    105.98913217	    -75.78366282
      1.63333333	    103.67705074	    -97.87669827
      1.66666667	     99.91399415	   -128.47532178
      1.67413866	     98.92486240	   -136.12346260
      1.70000000	     95.03707617	   -166.20234683
      1.73333333	     88.68886125	   -216.95967249
      1.74165297	     86.81888459	   -232.37255311
      1.76666667	     80.35270900	   -285.84084041
      1.78741862	     73.91764484	   -335.19900483
      1.80000000	     69.50351022	   -365.24431147
      1.83318427	     56.23072493	   -429.94177335
      1.83333333	     56.16662007	   -430.15084756
      1.86666667	     41.34498208	   -449.92387077
      1.89692417	     28.06959406	   -419.97293598
      1.90000000	     26.78709280	   -414.32263114
      1.93333333	     14.31611339	   -328.03608242
      1.96066408	      6.61436253	   -231.21079263
      1.96666667	      5.29643074	   -207.81979935
      1.97428847	      3.82818140	   -177.30852409
      1.98077401	      2.76410412	   -150.74708650
      1.98684997	      1.92483124	   -125.45358601
      1.99029749	      1.51729211	   -110.95502206
      1.99381638	      1.15302850	    -96.06360369
      1.99595429	      0.95736257	    -86.97628429
      1.99739253	      0.83667571	    -80.84777694
      1.99844183	      0.75419046	    -76.36944705
      1.99956353	      0.67121510	    -71.57600311
      1.99982237	      0.65283128	    -70.46899203
      1.99993508	      0.64491627	    -69.98688609
      1.99999994	      0.64038561	    -69.70939497
      2.00000000	      0.64038165	    -69.70912756
      2.00001396	      0.63941347	    -68.83849585
      2.00002798	      0.63845580	    -67.80530520
      2.00009806	      0.63388476	    -62.63766118
      2.00044849	      0.61646690	    -36.76394175
      2.00220060	      0.66552600	     92.64006807
      2.00679931	      1.84444347	    412.77043185
      2.01139801	      4.36280500	    669.68534613
      2.01826675	      9.87635994	    908.77229814
      2.02877696	     20.30835370	   1044.62070494
      2.03333333	     25.11180165	   1062.34851385
      2.03928717	     31.46716399	   1069.86255949
      2.05374576	     46.90594083	   1062.09360694
      2.06666667	     60.52600375	   1045.45625559
      2.07530977	     69.50669665	   1032.33411760
      2.10000000	     94.49393886	    991.57101364
      2.11690225	    111.02061220	    963.84282944
      2.13333333	    126.65255474	    939.34166918
      2.13670540	    129.81210546	    934.63965119
      2.15379506	    145.58083463	    909.57010475
      2.16666667	    157.09136474	    871.65813476
      2.16930360	    159.36910073	    856.55578550
      2.18481214	    171.26653415	    621.51341389
      2.19585950	    175.93847348	    184.84291201
      2.20000000	    176.27002032	    -24.97616630
      2.20322125	    175.92816787	   -187.56371374
      2.20992609	    173.64032106	   -481.64173985
      2.21663094	    169.68295390	   -682.76816476
      2.22676106	    161.87896897	   -833.97594989
      2.23333333	    156.25045160	   -876.50880048
      2.24268515	    147.89794881	   -904.37981203
